HIERARCHY
ROOT RootJoint
{
    OFFSET   0.000000   0.000000   0.000000
    CHANNELS 6 Xposition Yposition Zposition Xrotation Yrotation Zrotation
    JOINT pelvis_lowerback
    {
        OFFSET   0.000000   0.093605   0.000000
        CHANNELS 3 Xrotation Yrotation Zrotation
        JOINT lowerback_torso
        {
            OFFSET   0.000000   0.100000   0.000000
            CHANNELS 3 Xrotation Yrotation Zrotation
            JOINT torso_head
            {
                OFFSET   0.000000   0.282350   0.000000
                CHANNELS 3 Xrotation Yrotation Zrotation
                End Site
                {
                    OFFSET   0.000000   0.192650   0.000000
                }
            }
            JOINT rTorso_Clavicle
            {
                OFFSET  -0.001000   0.157500   0.000000
                CHANNELS 3 Xrotation Yrotation Zrotation
                JOINT rShoulder
                {
                    OFFSET  -0.117647   0.000000   0.000000
                    CHANNELS 3 Xrotation Yrotation Zrotation
                    JOINT rElbow
                    {
                        OFFSET  -0.245000   0.000000   0.000000
                        CHANNELS 3 Xrotation Yrotation Zrotation
                        JOINT rWrist
                        {
                            OFFSET  -0.240000   0.000000   0.000000
                            CHANNELS 3 Xrotation Yrotation Zrotation
                            End Site
                            {
                                OFFSET  -0.116353  -0.002500   0.000000
                            }
                        }
                    }
                }
            }
            JOINT lTorso_Clavicle
            {
                OFFSET   0.001000   0.157500   0.000000
                CHANNELS 3 Xrotation Yrotation Zrotation
                JOINT lShoulder
                {
                    OFFSET   0.117647   0.000000   0.000000
                    CHANNELS 3 Xrotation Yrotation Zrotation
                    JOINT lElbow
                    {
                        OFFSET   0.245000   0.000000   0.000000
                        CHANNELS 3 Xrotation Yrotation Zrotation
                        JOINT lWrist
                        {
                            OFFSET   0.240000   0.000000   0.000000
                            CHANNELS 3 Xrotation Yrotation Zrotation
                            End Site
                            {
                                OFFSET   0.116353  -0.002500   0.000000
                            }
                        }
                    }
                }
            }
        }
    }
    JOINT rHip
    {
        OFFSET  -0.100000  -0.051395   0.000000
        CHANNELS 3 Xrotation Yrotation Zrotation
        JOINT rKnee
        {
            OFFSET   0.000000  -0.410000   0.000000
            CHANNELS 3 Xrotation Yrotation Zrotation
            JOINT rAnkle
            {
                OFFSET   0.000000  -0.390000   0.000000
                CHANNELS 3 Xrotation Yrotation Zrotation
                JOINT rToeJoint
                {
                    OFFSET   0.000000  -0.050000   0.130000
                    CHANNELS 3 Xrotation Yrotation Zrotation
                    End Site
                    {
                        OFFSET  -0.010000   0.002000   0.060000
                    }
                }
            }
        }
    }
    JOINT lHip
    {
        OFFSET   0.100000  -0.051395   0.000000
        CHANNELS 3 Xrotation Yrotation Zrotation
        JOINT lKnee
        {
            OFFSET   0.000000  -0.410000   0.000000
            CHANNELS 3 Xrotation Yrotation Zrotation
            JOINT lAnkle
            {
                OFFSET   0.000000  -0.390000   0.000000
                CHANNELS 3 Xrotation Yrotation Zrotation
                JOINT lToeJoint
                {
                    OFFSET   0.000000  -0.050000   0.130000
                    CHANNELS 3 Xrotation Yrotation Zrotation
                    End Site
                    {
                        OFFSET   0.010000   0.002000   0.060000
                    }
                }
            }
        }
    }
}
MOTION
Frames: 14
Frame Time:   0.008333
 -2.381064   0.919492   4.019254  -8.374246  -5.721108  -0.184988  10.532335  -4.184858  -1.799940   4.258084  -8.205410  -1.044600   1.033120   2.304265  -3.168195   7.869635  -4.791814  -5.872438  42.036102   7.640262  37.687077  -0.010652  55.091560   0.011146   4.528810   6.398599   8.554994  -7.336886 -11.737280   7.101248 -34.814351  -8.464975 -23.568008   0.036607 -77.749250   0.027674  -5.427661  -8.487792   7.998479   8.249481  -0.393347  -3.283447   7.023777   0.000003  -0.000000  -6.658199   0.828559   3.850634  -0.569688  -0.000000  -0.000000  12.343621   0.342935   0.518034   5.427941  -0.000060   0.000030  -6.795911   5.898221   1.603598  -4.037289   0.000132   0.000064
 -2.381458   0.919527   4.019352  -8.372944  -5.737642  -0.175285  10.445013  -4.093507  -1.811200   4.258845  -8.069420  -1.021138   1.035969   2.187996  -3.043445   7.806857  -4.669957  -5.467251  40.935580   7.620135  37.672348  -0.012680  55.508919   0.013599   4.569809   6.180458   8.348505  -7.130295 -11.365239   6.666165 -34.019915  -8.129127 -23.980704   0.046776 -78.388381   0.036698  -5.322320  -8.543835   8.237763   8.260579  -0.384371  -3.266776   7.013218   0.000005  -0.000000  -6.655907   0.833729   3.800663  -0.574979  -0.000001  -0.000000  12.323666   0.350697   0.532762   5.480696  -0.000061   0.000022  -6.785131   5.883062   1.600950  -4.104270   0.000122   0.000066
 -2.381850   0.919553   4.019444  -8.380516  -5.758694  -0.171243  10.359835  -3.993860  -1.817992   4.261130  -7.917635  -0.997093   1.033617   2.074527  -2.917889   7.702115  -4.515913  -5.038043  39.858204   7.646843  37.666323  -0.014130  55.923360   0.015348   4.590392   6.061680   8.025627  -6.874711 -11.000541   6.180043 -33.222498  -7.788190 -24.418978   0.055313 -78.981985   0.044107  -5.219953  -8.596075   8.332459   8.278756  -0.373855  -3.246320   7.004756   0.000006   0.000000  -6.654687   0.842632   3.753695  -0.579586  -0.000002  -0.000000  12.311235   0.355508   0.552209   5.538474  -0.000064   0.000012  -6.783358   5.868182   1.597099  -4.163199   0.000111   0.000070
 -2.382234   0.919572   4.019512  -8.393715  -5.763928  -0.168168  10.283433  -3.884608  -1.820783   4.268713  -7.756614  -0.973888   1.027074   1.968054  -2.798077   7.581756  -4.343542  -4.600812  38.827778   7.702718  37.669688  -0.014875  56.323241   0.016196   4.597522   6.024395   7.680836  -6.602779 -10.658651   5.677410 -32.449921  -7.457780 -24.860769   0.061219 -79.527924   0.049249  -5.129226  -8.601949   8.342675   8.301230  -0.371733  -3.223392   7.001174   0.000006   0.000000  -6.657041   0.844438   3.709378  -0.583595  -0.000002  -0.000000  12.301398   0.357408   0.574118   5.597350  -0.000065   0.000010  -6.787428   5.852762   1.592009  -4.209938   0.000098   0.000064
 -2.382606   0.919584   4.019554  -8.408527  -5.747141  -0.163926  10.216688  -3.767460  -1.820579   4.280969  -7.590299  -0.951496   1.018877   1.868743  -2.685330   7.456156  -4.163569  -4.169422  37.851610   7.774559  37.679713  -0.015039  56.704430   0.016294   4.596822   6.038250   7.343975  -6.329690 -10.339401   5.179750 -31.712322  -7.144660 -25.293036   0.064608 -80.032092   0.052309  -5.048218  -8.571854   8.309046   8.325169  -0.380909  -3.198888   7.001237   0.000004   0.000000  -6.662621   0.835591   3.667421  -0.587108  -0.000002  -0.000000  12.290915   0.357389   0.597033   5.653440  -0.000063   0.000018  -6.794612   5.837005   1.586566  -4.243793   0.000085   0.000052
 -2.382967   0.919591   4.019573  -8.422676  -5.713961  -0.158467  10.158890  -3.641785  -1.818651   4.296384  -7.419209  -0.930466   1.010555   1.776314  -2.579672   7.330431  -3.982041  -3.753384  36.931637   7.853873  37.693263  -0.014773  57.065172   0.015837   4.591896   6.082431   7.021711  -6.063687 -10.039841   4.698997 -31.013983  -6.850758 -25.708028   0.065807 -80.499359   0.053568  -4.974292  -8.520154   8.254526   8.348098  -0.398300  -3.173542   7.003793   0.000003   0.000001  -6.670202   0.818607   3.627726  -0.590177  -0.000002  -0.000000  12.279154   0.348789   0.621870   5.704228  -0.000060   0.000027  -6.803071   5.813381   1.582682  -4.266788   0.000072   0.000042
 -2.383315   0.919597   4.019576  -8.435067  -5.667322  -0.151525  10.108799  -3.509362  -1.815889   4.313596  -7.244908  -0.911374   1.002857   1.690315  -2.480814   7.207483  -3.802955  -3.358522  36.067534   7.935133  37.707964  -0.014208  57.404896   0.015004   4.584936   6.143525   6.714211  -5.809141  -9.757703   4.241401 -30.356295  -6.576280 -26.101781   0.065202 -80.933484   0.053330  -4.905601  -8.456814   8.192467   8.369504  -0.422476  -3.148130   7.007399   0.000002   0.000001  -6.678993   0.794900   3.590320  -0.592844  -0.000002  -0.000000  12.265557   0.332961   0.647694   5.749725  -0.000056   0.000035  -6.811404   5.783560   1.579495  -4.281880   0.000061   0.000033
 -2.383631   0.919577   4.019603  -8.451517  -5.682033  -0.169152  10.050399  -3.400475  -1.793317   4.310639  -7.065438  -0.869461   1.011059   1.581545  -2.353804   7.095579  -3.647573  -2.933948  34.905785   8.000032  37.665477  -0.017237  57.950367   0.018325   4.648697   5.913398   6.461087  -5.550629  -9.377250   3.802649 -29.267563  -6.328056 -26.574865   0.068516 -81.249923   0.057357  -4.732907  -8.573212   8.467459   8.384943  -0.400099  -3.105964   7.015002  -0.000001   0.000002  -6.674768   0.789470   3.509584  -0.605560  -0.000007  -0.000000  12.264333   0.349370   0.683537   5.801169  -0.000055   0.000028  -6.850975   5.770613   1.582717  -4.271794   0.000047   0.000025
 -2.383917   0.919550   4.019615  -8.477665  -5.699893  -0.190865   9.995721  -3.285922  -1.760960   4.313666  -6.872618  -0.823577   1.013686   1.475409  -2.223954   6.942777  -3.459641  -2.505359  33.771719   8.101985  37.626767  -0.019420  58.487417   0.020646   4.693113   5.807935   6.088806  -5.242358  -9.012623   3.324173 -28.190295  -6.076197 -27.065652   0.069735 -81.524113   0.059212  -4.578852  -8.578488   8.565278   8.406430  -0.377286  -3.063479   7.027243  -0.000003   0.000002  -6.672101   0.787393   3.432706  -0.617890  -0.000011  -0.000000  12.270028   0.362948   0.720619   5.858482  -0.000056   0.000020  -6.898047   5.758279   1.584491  -4.255207   0.000034   0.000017
 -2.384185   0.919500   4.019611  -8.510418  -5.696404  -0.205462   9.949188  -3.163646  -1.727489   4.323347  -6.673383  -0.780293   1.012588   1.375540  -2.098593   6.777758  -3.255530  -2.080501  32.690241   8.223942  37.596846  -0.020540  59.000981   0.021700   4.725704   5.784600   5.690647  -4.922454  -8.674469   2.833268 -27.157111  -5.836727 -27.555263   0.068965 -81.770081   0.059081  -4.442542  -8.511577   8.565883   8.427106  -0.363527  -3.027475   7.052098  -0.000007   0.000005  -6.630129   0.777882   3.370258  -0.888402  -0.000097  -0.000006  12.279334   0.371509   0.752212   5.916567  -0.000054   0.000022  -6.951508   5.743491   1.583470  -4.225025   0.000023   0.000012
 -2.384442   0.919466   4.019579  -8.542372  -5.674010  -0.222833   9.910453  -3.030540  -1.685942   4.337837  -6.468210  -0.737410   1.009739   1.282455  -1.979991   6.610105  -3.044686  -1.667025  31.667224   8.355010  37.573566  -0.020755  59.486666   0.021697   4.752043   5.804461   5.296670  -4.605616  -8.359865   2.346285 -26.177146  -5.613565 -28.032379   0.066721 -81.994727   0.057500  -4.317924  -8.410206   8.520133   8.453645  -0.363402  -2.985198   7.074230  -0.000010   0.000009  -6.645330   0.757594   3.297175  -0.847898  -0.000061  -0.000005  12.285010   0.373206   0.789847   5.971438  -0.000051   0.000029  -6.999631   5.723361   1.583690  -4.193839   0.000014   0.000010
 -2.384688   0.919436   4.019520  -8.571247  -5.636574  -0.236494   9.878614  -2.888088  -1.644967   4.354728  -6.258873  -0.697046   1.006644   1.195860  -1.868191   6.445214  -2.834244  -1.272670  30.704337   8.488336  37.555449  -0.020321  59.944494   0.020946   4.774420   5.851162   4.917907  -4.299912  -8.065022   1.877684 -25.253843  -5.407684 -28.488381   0.063377 -82.201598   0.054849  -4.201886  -8.292495   8.453771   8.478791  -0.371685  -2.944799   7.093052  -0.000012   0.000012  -6.657502   0.730335   3.229330  -0.816772  -0.000037  -0.000004  12.286030   0.366444   0.826884   6.021439  -0.000048   0.000036  -7.043597   5.696175   1.584834  -4.159267   0.000006   0.000007
 -2.384923   0.919406   4.019443  -8.597074  -5.580349  -0.245947   9.852851  -2.740915  -1.605149   4.373218  -6.049301  -0.659715   1.004049   1.115256  -1.763317   6.286136  -2.629158  -0.901234  29.801102   8.618859  37.540644  -0.019435  60.374367   0.019692   4.794467   5.912118   4.555681  -4.009241  -7.787954   1.433207 -24.387472  -5.218814 -28.919723   0.059280 -82.393236   0.051457  -4.092309  -8.169233   8.380883   8.502744  -0.390281  -2.906125   7.110560  -0.000012   0.000015  -6.668942   0.694212   3.165978  -0.793099  -0.000021  -0.000003  12.282661   0.358398   0.861764   6.066714  -0.000042   0.000047  -7.083983   5.669493   1.585187  -4.120480  -0.000001   0.000012
 -2.385130   0.919337   4.019374  -8.645138  -5.609548  -0.285851   9.828777  -2.633320  -1.546798   4.386432  -5.846164  -0.588832   0.987119   1.018439  -1.622989   6.123984  -2.444742  -0.531890  28.613502   8.811669  37.437823  -0.023878  61.080209   0.024138   4.878007   5.634008   4.290493  -3.706953  -7.436509   1.096233 -23.013683  -5.044426 -29.405441   0.032500 -82.197776   0.027163  -3.836884  -8.390346   8.641101   8.520203  -0.338657  -2.852394   7.164483  -0.000020   0.000021  -6.685358   0.678101   3.087661  -0.779752  -0.000010  -0.000002  12.302091   0.393371   0.908863   6.139507  -0.000046   0.000039  -7.169440   5.647266   1.591968  -4.057342  -0.000012  -0.000003
